<svg width="56" height="52" viewBox="0 0 56 52" fill="none" xmlns="http://www.w3.org/2000/svg">
<path d="M54 7.04175H2V38.2417H54V7.04175Z" stroke="#002B49" stroke-width="2.5" stroke-linecap="round" stroke-linejoin="round"/>
<path d="M51.8333 38.4583H4.16663V41.7083H51.8333V38.4583Z" stroke="#002B49" stroke-width="2.5" stroke-linecap="round" stroke-linejoin="round"/>
<path d="M49.6667 41.7083H6.33337V44.9583H49.6667V41.7083Z" stroke="#002B49" stroke-width="2.5" stroke-linecap="round" stroke-linejoin="round"/>
<path d="M27.7387 34.3818C32.3562 34.3818 36.0995 29.2315 36.0995 22.8784C36.0995 16.5252 32.3562 11.375 27.7387 11.375C23.1212 11.375 19.3779 16.5252 19.3779 22.8784C19.3779 29.2315 23.1212 34.3818 27.7387 34.3818Z" stroke="#002B49" stroke-width="2.5" stroke-linecap="round" stroke-linejoin="round"/>
<path fill-rule="evenodd" clip-rule="evenodd" d="M11.3437 34.3818H44.6562C44.6562 31.2052 47.142 28.6301 50.2083 28.6301V17.1267C47.142 17.1267 44.6562 14.5516 44.6562 11.375H11.3437C11.3437 14.5516 8.85796 17.1267 5.79163 17.1267V28.6301C8.85796 28.6301 11.3437 31.2052 11.3437 34.3818Z" stroke="#002B49" stroke-width="2.5" stroke-linecap="round" stroke-linejoin="round"/>
<path d="M13.6299 24.5218C14.4957 24.5218 15.1975 23.786 15.1975 22.8784C15.1975 21.9709 14.4957 21.2351 13.6299 21.2351C12.7641 21.2351 12.0623 21.9709 12.0623 22.8784C12.0623 23.786 12.7641 24.5218 13.6299 24.5218Z" stroke="#002B49" stroke-width="2.5" stroke-linecap="round" stroke-linejoin="round"/>
<path d="M41.325 24.5218C42.1908 24.5218 42.8926 23.786 42.8926 22.8784C42.8926 21.9709 42.1908 21.2351 41.325 21.2351C40.4592 21.2351 39.7573 21.9709 39.7573 22.8784C39.7573 23.786 40.4592 24.5218 41.325 24.5218Z" stroke="#002B49" stroke-width="2.5" stroke-linecap="round" stroke-linejoin="round"/>
</svg>
