<svg width="12" height="14" viewBox="0 0 12 14" fill="none" xmlns="http://www.w3.org/2000/svg">
<path d="M6 0.333252C4.58551 0.333252 3.22896 0.895155 2.22877 1.89535C1.22857 2.89554 0.666668 4.2521 0.666668 5.66659C0.666668 9.26659 5.36667 13.3333 5.56667 13.5066C5.68742 13.6099 5.8411 13.6666 6 13.6666C6.1589 13.6666 6.31258 13.6099 6.43333 13.5066C6.66667 13.3333 11.3333 9.26659 11.3333 5.66659C11.3333 4.2521 10.7714 2.89554 9.77124 1.89535C8.77104 0.895155 7.41449 0.333252 6 0.333252ZM6 12.0999C4.58 10.7666 2 7.89325 2 5.66659C2 4.60572 2.42143 3.5883 3.17157 2.83816C3.92172 2.08801 4.93914 1.66659 6 1.66659C7.06087 1.66659 8.07828 2.08801 8.82843 2.83816C9.57857 3.5883 10 4.60572 10 5.66659C10 7.89325 7.42 10.7733 6 12.0999ZM6 2.99992C5.47258 2.99992 4.95701 3.15632 4.51848 3.44933C4.07995 3.74235 3.73816 4.15883 3.53632 4.6461C3.33449 5.13337 3.28168 5.66954 3.38457 6.18683C3.48747 6.70411 3.74144 7.17926 4.11438 7.5522C4.48732 7.92514 4.96248 8.17912 5.47976 8.28201C5.99704 8.38491 6.53322 8.3321 7.02049 8.13026C7.50776 7.92843 7.92424 7.58664 8.21725 7.14811C8.51027 6.70957 8.66667 6.194 8.66667 5.66659C8.66667 4.95934 8.38572 4.28106 7.88562 3.78097C7.38552 3.28087 6.70724 2.99992 6 2.99992ZM6 6.99992C5.73629 6.99992 5.47851 6.92172 5.25924 6.77521C5.03998 6.6287 4.86908 6.42046 4.76816 6.17683C4.66724 5.9332 4.64084 5.66511 4.69229 5.40647C4.74373 5.14782 4.87072 4.91025 5.05719 4.72378C5.24366 4.53731 5.48124 4.41032 5.73988 4.35887C5.99852 4.30742 6.26661 4.33383 6.51025 4.43475C6.75388 4.53566 6.96212 4.70656 7.10863 4.92583C7.25514 5.14509 7.33333 5.40288 7.33333 5.66659C7.33333 6.02021 7.19286 6.35935 6.94281 6.60939C6.69276 6.85944 6.35362 6.99992 6 6.99992Z" fill="white"/>
</svg>
