<svg width="14" height="12" viewBox="0 0 14 12" fill="none" xmlns="http://www.w3.org/2000/svg">
<path d="M11.6667 0.666748H2.33333C1.8029 0.666748 1.29419 0.877462 0.919119 1.25253C0.544046 1.62761 0.333332 2.13631 0.333332 2.66675V9.33341C0.333332 9.86385 0.544046 10.3726 0.919119 10.7476C1.29419 11.1227 1.8029 11.3334 2.33333 11.3334H11.6667C12.1971 11.3334 12.7058 11.1227 13.0809 10.7476C13.456 10.3726 13.6667 9.86385 13.6667 9.33341V2.66675C13.6667 2.13631 13.456 1.62761 13.0809 1.25253C12.7058 0.877462 12.1971 0.666748 11.6667 0.666748ZM11.3933 2.00008L7.47333 5.92008C7.41136 5.98257 7.33762 6.03216 7.25638 6.06601C7.17514 6.09985 7.08801 6.11728 7 6.11728C6.91199 6.11728 6.82485 6.09985 6.74361 6.06601C6.66237 6.03216 6.58864 5.98257 6.52667 5.92008L2.60667 2.00008H11.3933ZM12.3333 9.33341C12.3333 9.51023 12.2631 9.6798 12.1381 9.80482C12.013 9.92984 11.8435 10.0001 11.6667 10.0001H2.33333C2.15652 10.0001 1.98695 9.92984 1.86193 9.80482C1.7369 9.6798 1.66667 9.51023 1.66667 9.33341V2.94008L5.58667 6.86008C5.96167 7.23462 6.47 7.44499 7 7.44499C7.53 7.44499 8.03833 7.23462 8.41333 6.86008L12.3333 2.94008V9.33341Z" fill="white"/>
</svg>
