<svg width="68" height="69" viewBox="0 0 68 69" fill="none" xmlns="http://www.w3.org/2000/svg">
<rect x="1" y="1.5" width="66" height="66" rx="33" fill="#FEFEFE" stroke="#FFC600" stroke-width="2" stroke-dasharray="2 2"/>
<path d="M34.0002 21.1665C31.1712 21.1665 28.4581 22.2903 26.4577 24.2907C24.4573 26.2911 23.3335 29.0042 23.3335 31.8332C23.3335 39.0332 32.7335 47.1665 33.1335 47.5132C33.375 47.7197 33.6824 47.8333 34.0002 47.8333C34.318 47.8333 34.6253 47.7197 34.8668 47.5132C35.3335 47.1665 44.6668 39.0332 44.6668 31.8332C44.6668 29.0042 43.543 26.2911 41.5426 24.2907C39.5422 22.2903 36.8291 21.1665 34.0002 21.1665ZM34.0002 44.6998C31.1602 42.0332 26.0002 36.2865 26.0002 31.8332C26.0002 29.7114 26.843 27.6766 28.3433 26.1763C29.8436 24.676 31.8784 23.8332 34.0002 23.8332C36.1219 23.8332 38.1567 24.676 39.657 26.1763C41.1573 27.6766 42.0002 29.7114 42.0002 31.8332C42.0002 36.2865 36.8402 42.0465 34.0002 44.6998ZM34.0002 26.4998C32.9453 26.4998 31.9142 26.8126 31.0371 27.3987C30.1601 27.9847 29.4765 28.8177 29.0728 29.7922C28.6691 30.7667 28.5635 31.8391 28.7693 32.8737C28.9751 33.9082 29.483 34.8585 30.2289 35.6044C30.9748 36.3503 31.9251 36.8582 32.9597 37.064C33.9942 37.2698 35.0666 37.1642 36.0411 36.7605C37.0157 36.3569 37.8486 35.6733 38.4347 34.7962C39.0207 33.9191 39.3335 32.888 39.3335 31.8332C39.3335 30.4187 38.7716 29.0621 37.7714 28.0619C36.7712 27.0617 35.4146 26.4998 34.0002 26.4998ZM34.0002 34.4998C33.4727 34.4998 32.9572 34.3434 32.5186 34.0504C32.0801 33.7574 31.7383 33.3409 31.5365 32.8537C31.3347 32.3664 31.2818 31.8302 31.3847 31.3129C31.4876 30.7956 31.7416 30.3205 32.1145 29.9476C32.4875 29.5746 32.9626 29.3206 33.4799 29.2177C33.9972 29.1148 34.5334 29.1677 35.0207 29.3695C35.5079 29.5713 35.9244 29.9131 36.2174 30.3517C36.5104 30.7902 36.6668 31.3058 36.6668 31.8332C36.6668 32.5404 36.3859 33.2187 35.8858 33.7188C35.3857 34.2189 34.7074 34.4998 34.0002 34.4998Z" fill="#FFC600"/>
</svg>
