<svg width="286" height="96" viewBox="0 0 286 96" fill="none" xmlns="http://www.w3.org/2000/svg">
<path fill-rule="evenodd" clip-rule="evenodd" d="M81.7564 15.3561L81.7416 29.7752V29.7779L81.741 30.1136V30.1167C81.7368 32.5259 81.7113 47.1198 81.7371 53.419C81.8441 59.5075 80.948 65.0122 78.9739 69.6748C76.0599 76.5691 70.9513 81.419 62.5186 85.8902C57.8949 88.3465 51.5376 91.2537 43.1319 94.7676L43.1307 94.7681L40.8931 95.7023L38.6569 94.769L38.6552 94.7683C30.2403 91.2493 23.8849 88.3427 19.2684 85.8893C10.8382 81.4225 5.72763 76.5727 2.81078 69.6753L2.79828 69.6457L2.7865 69.6159C0.750113 64.4549 -0.188078 58.9295 0.0312089 53.3892C0.0321246 53.0326 0.0315159 51.8004 0.0308868 50.5429L0.030373 9.74495L1.39663 8.98849C12.2596 2.97397 26.6577 0.04999 40.8875 0.0496124C55.1173 0.0492349 69.5146 2.97243 80.3756 8.98794L80.4554 9.03212L81.7564 9.87419V15.3561ZM2.68502 53.4465C2.47304 58.6356 3.3486 63.8117 5.25598 68.6458C7.86173 74.8075 12.4267 79.2663 20.5161 83.552C25.0254 85.9485 31.2934 88.8185 39.6811 92.326L40.893 92.8318L42.1063 92.3252C50.4844 88.8229 56.7545 85.9522 61.2713 83.5528C69.3631 79.2626 73.9257 74.8038 76.5285 68.6458C78.3278 64.3969 79.1875 59.2696 79.0832 53.448C79.0573 47.1496 79.0828 32.5226 79.087 30.1128V30.109L79.1024 15.3534V11.3128L79.0876 11.3033C58.3689 -0.172017 23.4074 -0.169803 2.68435 11.304L2.68486 50.5416C2.68552 51.856 2.68617 53.1582 2.68502 53.4465Z" fill="white"/>
<path d="M78.9782 11.0804V15.1371L78.9635 29.6163C78.9635 29.6296 78.9633 29.7456 78.9629 29.9514C78.9588 32.3591 78.9333 47.0565 78.9591 53.3834C79.063 59.2281 78.2061 64.3758 76.4127 68.6417C73.8183 74.8243 69.2706 79.3008 61.2051 83.608C56.703 86.017 50.4532 88.8991 42.1023 92.4154L40.8929 92.924L39.685 92.4162C31.3246 88.8947 25.0769 86.0133 20.5822 83.6073C12.5191 79.3045 7.96896 74.828 5.37169 68.6417C3.47049 63.7884 2.59778 58.5916 2.80907 53.3819C2.81022 53.0924 2.80957 51.785 2.80891 50.4654C2.80873 50.0967 2.80855 49.7271 2.8084 49.3785V11.0716C23.4641 -0.447941 58.3121 -0.450163 78.9635 11.0708L78.9782 11.0804Z" fill="#002B49"/>
<path fill-rule="evenodd" clip-rule="evenodd" d="M40.8639 89.3372C32.6272 85.8829 26.4875 83.0636 22.0908 80.7209C14.7208 76.8032 10.5966 72.8085 8.30198 67.3642C6.57185 62.937 5.78246 58.199 5.9839 53.451C5.98757 52.7882 5.98317 47.4568 5.98317 47.4568C14.8611 35.4368 34.1946 28.2299 57.6832 28.2299C63.7355 28.2111 69.7762 28.7625 75.7247 29.8767L75.7996 29.8914C75.7974 31.1218 75.7681 46.824 75.7952 53.4093C75.8915 58.8249 75.1173 63.5191 73.4955 67.3628C71.2024 72.8057 67.0797 76.8003 59.7104 80.7195C55.3078 83.0659 49.1667 85.8852 40.9344 89.3372L40.8991 89.3519L40.8639 89.3372Z" fill="#FFC600"/>
<path fill-rule="evenodd" clip-rule="evenodd" d="M51.9907 52.6074C48.338 54.2895 47.2875 59.5054 47.5366 63.1829C47.6273 64.5942 47.7939 66.0406 47.1887 67.3707C45.4526 71.222 39.4822 68.8784 40.7679 63.5253C42.069 58.0883 44.7966 53.209 44.8024 46.8133C44.8069 41.5404 42.6838 36.846 38.3661 32.5953C39.6938 37.2213 37.4631 39.6685 34.9139 42.4648C33.5273 43.9921 32.1326 45.483 31.4595 47.4828C30.9613 48.9023 30.8303 50.4229 31.0786 51.9054C31.3269 53.388 31.9465 54.7852 32.8808 55.9694C32.625 54.3958 32.6335 52.791 32.9059 51.2201C33.7765 47.0141 39.3068 45.0669 40.6492 41.385C42.0786 43.7081 41.64 47.0813 40.3897 50.2323C38.075 55.0802 33.3054 61.6854 34.5439 67.3108C35.2965 70.7394 37.0053 73.1494 40.1877 74.4497C44.1265 76.0545 49.0508 74.43 50.9373 70.5445C51.8473 68.5229 51.9863 66.243 51.3287 64.1276C49.2263 56.9419 50.5525 54.6955 51.9907 52.6074Z" fill="white"/>
<path fill-rule="evenodd" clip-rule="evenodd" d="M51.6243 52.3195L51.6474 52.3106L51.9907 52.7181C51.1658 53.8154 50.6217 55.1056 50.4079 56.472C50.1696 58.1728 50.3632 60.5083 51.3781 64.0872L51.381 64.0981C51.6774 65.23 51.8046 66.4011 51.7582 67.5718C51.7127 68.6748 51.4493 69.7571 50.9837 70.7533C50.1284 72.4019 48.7854 73.7322 47.1463 74.5545C45.5073 75.3767 43.6559 75.6487 41.8566 75.3318C41.2696 75.2237 40.6953 75.0536 40.1427 74.8242V74.8194H40.1399C38.6536 74.224 37.3526 73.2289 36.3746 71.9395C35.4157 70.6003 34.7622 69.0588 34.4621 67.4279C33.4918 62.876 36.1831 57.778 38.4886 53.4041C39.1098 52.2226 39.7073 51.0979 40.1895 50.0518C41.0724 47.9908 41.4181 45.7312 41.1929 43.4931C41.1307 43.1197 41.0378 42.7523 40.9151 42.3949C40.8578 42.2256 40.7917 42.0596 40.7171 41.8976C40.0067 43.4063 38.665 44.6223 37.3096 45.8545C35.5922 47.4206 33.8402 49.0205 33.3946 51.2178C33.2526 51.9524 33.186 52.7002 33.1959 53.449C33.2 54.2725 33.2599 55.0946 33.3752 55.9097L32.8879 56.1111C31.5071 54.3091 30.8265 52.0493 30.9768 49.7657C31.0044 49.3499 31.0585 48.9363 31.1387 48.5277C31.2188 48.1212 31.3236 47.7203 31.4526 47.3271L31.4583 47.3117C32.1162 45.2953 33.4385 43.794 34.7752 42.2816L34.8947 42.1528L34.9011 42.1373C37.3276 39.3869 39.4525 36.9777 38.1993 32.472L38.6528 32.1984C40.6472 34.1628 42.2678 36.4882 43.4322 39.0566C44.4911 41.4658 45.0309 44.0793 45.0151 46.7203C45.01 51.0619 43.8202 54.6981 42.6462 58.2761C42.0653 60.0482 41.4931 61.8034 41.0698 63.6159C40.8509 64.36 40.8186 65.1484 40.9758 65.9086C41.1331 66.6689 41.4748 67.3764 41.9696 67.9664C42.3294 68.359 42.77 68.6653 43.2595 68.8631C43.7172 69.0447 44.2115 69.1089 44.6991 69.0499C45.1717 68.9804 45.6178 68.7842 45.9921 68.4812C46.3663 68.1782 46.6553 67.7793 46.8297 67.325C47.2466 66.1143 47.3609 64.8163 47.1623 63.549L47.1407 63.2276C46.9622 60.519 47.4559 56.9873 49.1028 54.5679C49.4234 54.0939 49.7961 53.659 50.2135 53.2717C50.6388 52.8898 51.1136 52.5691 51.6243 52.3195ZM50.898 53.4181C50.7893 53.5071 50.6821 53.5946 50.5741 53.6925C50.1861 54.0451 49.8418 54.445 49.5491 54.8834C47.9814 57.1925 47.5164 60.5808 47.6856 63.1878L47.7107 63.513C47.9134 64.8694 47.7806 66.256 47.3242 67.5464C47.1136 68.09 46.7657 68.5667 46.3161 68.9282C45.8664 69.2896 45.3311 69.5228 44.7646 69.6039C44.1887 69.6734 43.6049 69.5974 43.0644 69.3825C42.4963 69.1544 41.9857 68.7984 41.5708 68.3408C41.0122 67.6874 40.6247 66.9001 40.4445 66.0522C40.2642 65.2044 40.2971 64.3237 40.5401 63.4923C40.9604 61.6637 41.5456 59.8871 42.1294 58.1011C43.289 54.5627 44.4673 50.9677 44.4702 46.7203C44.4833 44.1594 43.9605 41.6252 42.937 39.2876C41.9487 37.084 40.6037 35.0666 38.9587 33.3203C39.7425 37.4802 37.658 39.8473 35.3136 42.5051L35.2978 42.5258L35.1819 42.6487C33.8819 44.125 32.5956 45.5816 31.9751 47.486V47.4817L31.9723 47.4979C31.8492 47.8706 31.7494 48.2509 31.6736 48.6365C31.5971 49.0209 31.547 49.4103 31.5238 49.8018C31.401 51.5721 31.8166 53.338 32.7137 54.8577C32.6726 54.3752 32.651 53.9043 32.6482 53.449C32.6424 52.6635 32.7132 51.8794 32.8598 51.1083C33.3385 48.7196 35.1603 47.0608 36.9447 45.4469C38.4123 44.1111 39.8519 42.7935 40.4335 41.1582L40.625 40.6189L40.9252 41.1059V41.1111L40.9273 41.1162C41.1307 41.4644 41.3 41.8323 41.4326 42.2146C41.5633 42.6027 41.662 43.0013 41.7277 43.4063C41.9723 45.7469 41.6145 48.1122 40.6898 50.2681L40.6833 50.2784V50.2902C40.1924 51.3465 39.5935 52.4757 38.968 53.6659C36.7064 57.9553 34.0683 62.9583 34.994 67.3094C35.2821 68.8598 35.9023 70.3259 36.8101 71.6025C37.7284 72.8108 38.9475 73.7447 40.34 74.3066H40.35C40.8638 74.5252 41.4001 74.6836 41.9487 74.7789C42.4959 74.8785 43.0517 74.92 43.6072 74.9025C45.0366 74.879 46.4327 74.4578 47.6454 73.6841C48.8581 72.9105 49.8415 71.8136 50.4899 70.5115H50.4935C50.9269 69.5829 51.172 68.5743 51.214 67.5463C51.2591 66.4333 51.1388 65.3196 50.857 64.2434C49.8126 60.5808 49.6276 58.1614 49.8752 56.3958C50.0154 55.3427 50.3634 54.3296 50.898 53.4181Z" fill="#A7A8A9"/>
<path fill-rule="evenodd" clip-rule="evenodd" d="M55.1268 69.4321C54.9571 67.6131 54.2716 66.3811 53.0257 65.9349C54.8111 76.7125 39.2157 79.6957 35.5286 71.9028C35.2011 73.1406 35.2641 74.4544 35.7085 75.6524C36.1528 76.8505 36.9552 77.8702 37.9987 78.5627C40.2848 80.1966 43.104 80.8233 45.8362 80.305C47.5922 80.0429 49.251 79.3084 50.647 78.1747C52.2266 76.8272 52.8553 78.5225 51.9345 79.3128C48.7408 82.8175 41.7405 82.7326 38.4072 79.6853L44.1854 88.1612L45.491 87.5862C44.7436 86.226 44.0214 84.889 43.3194 83.5966C43.5841 83.6242 44.0006 83.6555 44.5214 83.6637C45.0982 84.7944 45.7111 86.0115 46.3132 87.207L47.5281 86.6596C47.072 85.6026 46.6289 84.5858 46.2024 83.5989C46.6023 83.5616 47.0224 83.5065 47.4569 83.4268C47.7791 84.2365 48.2136 85.3232 48.5531 86.1918L49.6248 85.7039C49.3889 84.7668 49.1911 83.9437 48.976 83.0477C49.2896 82.9478 49.6028 82.8316 49.9154 82.699C50.1053 83.5303 50.3269 84.4055 50.5484 85.2569C51.8461 84.6491 53.1228 84.0331 54.4032 83.3962C54.1681 80.7943 54.2029 78.1738 54.5068 75.5795C54.7492 73.5125 55.3189 71.5252 55.1268 69.4321ZM39.7257 77.7724C39.7182 77.8029 39.705 77.8315 39.6867 77.8566C39.6685 77.8818 39.6457 77.9029 39.6196 77.9189C39.5934 77.9349 39.5645 77.9454 39.5345 77.9498C39.5044 77.9542 39.4739 77.9524 39.4445 77.9445C39.4136 77.9412 39.3837 77.9312 39.3567 77.9152C39.3297 77.8992 39.3063 77.8776 39.2879 77.8516C39.2695 77.8257 39.2565 77.7961 39.2498 77.7647C39.2431 77.7332 39.2428 77.7007 39.2489 77.6692C39.2551 77.6376 39.2675 77.6078 39.2855 77.5815C39.3034 77.5552 39.3265 77.5331 39.3531 77.5166C39.3798 77.5001 39.4095 77.4896 39.4404 77.4856C39.4712 77.4817 39.5025 77.4845 39.5322 77.4938C39.5627 77.4988 39.5918 77.5101 39.618 77.5268C39.6443 77.5435 39.667 77.5655 39.685 77.5914C39.703 77.6173 39.7159 77.6466 39.7229 77.6777C39.7298 77.7088 39.7308 77.741 39.7257 77.7724ZM40.558 78.6268C40.4342 78.6048 40.3233 78.5342 40.2484 78.4298C40.1735 78.3253 40.1404 78.195 40.1559 78.0659C40.1895 77.9405 40.2695 77.8338 40.3786 77.7691C40.4877 77.7044 40.617 77.6869 40.7385 77.7203C40.7999 77.7297 40.8589 77.7515 40.9122 77.7845C40.9655 77.8175 41.0119 77.861 41.049 77.9126C41.086 77.9642 41.1128 78.0229 41.1279 78.0852C41.143 78.1476 41.1461 78.2124 41.137 78.276C41.1033 78.4008 41.024 78.5071 40.916 78.5726C40.8079 78.6381 40.6796 78.6575 40.558 78.6268ZM51.0318 75.8201C49.9587 76.9067 48.6773 77.7479 47.2705 78.2892C45.8636 78.8306 44.3627 79.06 42.8648 78.9627C42.547 79.0008 42.2261 78.9265 41.9541 78.7519C41.8538 78.6667 41.7813 78.5516 41.7466 78.4221C41.7118 78.2927 41.7165 78.1553 41.7599 78.0287C41.9239 77.5408 42.5519 77.6406 42.8828 77.6629C45.7907 77.825 48.6583 76.9018 50.9649 75.0611C51.2807 75.0179 51.3368 75.4805 51.0318 75.8201Z" fill="#002B49"/>
<path fill-rule="evenodd" clip-rule="evenodd" d="M38.1392 8.52928L34.7533 18.0884H34.3794L30.9434 8.64037V15.7111C30.9041 16.1874 31.0113 16.6644 31.2504 17.0756C31.3768 17.2222 31.533 17.3391 31.7081 17.4181C31.8833 17.4971 32.0732 17.5364 32.2647 17.5332L32.2728 18.0883H29.0069V17.5332C29.1997 17.5357 29.3909 17.4957 29.5671 17.4158C29.7433 17.3359 29.9005 17.2181 30.0278 17.0704C30.2635 16.6598 30.3687 16.185 30.3288 15.711V9.76626C30.3811 9.35463 30.3101 8.9365 30.125 8.56679C29.8794 8.39508 29.5808 8.32041 29.2851 8.35675H29.0069V7.84215H31.8834L34.8703 16.0104L37.8021 7.84215H40.8052V8.35675H40.5535C40.2487 8.31589 39.9402 8.39651 39.6923 8.58179C39.5187 8.92496 39.4503 9.31331 39.4957 9.69657V16.3382C39.4545 16.6923 39.526 17.0504 39.6996 17.3599C39.9448 17.5452 40.2508 17.6264 40.5535 17.5865H40.8052V18.0884H36.8275V17.5865H37.0601C37.3668 17.6254 37.6768 17.5471 37.9301 17.3667C38.1085 17.0565 38.1819 16.6951 38.1392 16.3382V8.52928Z" fill="white"/>
<path fill-rule="evenodd" clip-rule="evenodd" d="M45.5325 7.84252V8.35637H45.2676C44.9591 8.31566 44.647 8.39612 44.3946 8.58141C44.217 8.90093 44.145 9.27017 44.1892 9.6346V16.2656C44.1428 16.6411 44.2202 17.0216 44.4093 17.3473C44.6626 17.541 44.9799 17.6265 45.2941 17.5859H45.5325V18.0877H41.5247V17.5859H41.6947C42.0167 17.6247 42.3418 17.5477 42.6141 17.3683C42.8085 17.0577 42.8886 16.6869 42.84 16.3219V9.63438C42.889 9.26209 42.8147 8.88378 42.6288 8.55943C42.358 8.38908 42.0386 8.3174 41.7227 8.35614H41.5247V7.8423L45.5325 7.84252Z" fill="white"/>
<path fill-rule="evenodd" clip-rule="evenodd" d="M53.87 7.84252L54.6966 10.3075L54.2594 10.4733C53.796 9.81089 53.2482 9.21429 52.6305 8.69918C52.2603 8.43631 51.8193 8.29664 51.3681 8.29936C51.2148 8.28385 51.0609 8.32338 50.9331 8.41113C50.8856 8.46833 50.8502 8.53489 50.8291 8.60664C50.8079 8.67839 50.8015 8.75381 50.8102 8.82821V16.3521C50.7692 16.701 50.8447 17.0537 51.0244 17.3535C51.2769 17.5426 51.5909 17.6258 51.9018 17.5861H52.152V18.0879H48.1302V17.5861H48.3804C48.6872 17.6257 48.9973 17.5453 49.2483 17.361C49.4272 17.0629 49.5017 16.7117 49.4595 16.3649V8.82821C49.4683 8.75375 49.4618 8.67825 49.4405 8.60647C49.4193 8.53469 49.3836 8.46817 49.3358 8.41113C49.208 8.32338 49.0542 8.28385 48.9008 8.29936C48.4497 8.29686 48.0088 8.43651 47.6385 8.69918C47.0213 9.21491 46.4736 9.81143 46.0096 10.4733L45.5731 10.3075L46.3982 7.84252H53.87Z" fill="white"/>
<path fill-rule="evenodd" clip-rule="evenodd" d="M58.282 13.9055L55.8545 9.02361C55.7596 8.81217 55.6125 8.62944 55.4276 8.49327C55.2113 8.39113 54.9755 8.33937 54.7371 8.34174L54.7511 7.84223H58.2143V8.34174H58.0914C57.8528 8.32999 57.6141 8.35996 57.3855 8.43033C57.2368 8.48584 57.1632 8.57661 57.1632 8.69663C57.1652 8.76032 57.1795 8.823 57.2052 8.8811C57.2519 9.00504 57.3087 9.12476 57.3752 9.23899L59.3456 13.0789L61.0768 9.56604C61.1267 9.4635 61.1685 9.35714 61.202 9.24791C61.226 9.15684 61.2391 9.06314 61.241 8.96885C61.2447 8.87341 61.2225 8.77877 61.1766 8.69546C61.1307 8.61216 61.063 8.54346 60.9811 8.49702C60.7322 8.37771 60.4578 8.3243 60.1832 8.34174L60.198 7.84223H63.1032V8.34174C62.8337 8.38537 62.5798 8.49908 62.3661 8.67187C62.1523 8.84466 61.9859 9.0707 61.8828 9.32817C61.8548 9.38819 61.8342 9.4332 61.821 9.46178L59.6386 13.7173V16.3931C59.6006 16.729 59.6762 17.0679 59.8528 17.3541C60.1054 17.5428 60.4193 17.626 60.7301 17.5866H60.9811V18.0885H56.9718V17.5866H57.2258C57.5253 17.6232 57.8275 17.5457 58.0744 17.3691C58.2506 17.0715 58.3237 16.7223 58.282 16.3774V13.9055Z" fill="white"/>
<path fill-rule="evenodd" clip-rule="evenodd" d="M27.8078 17.5338C27.7129 17.5147 27.6228 17.4765 27.5428 17.4213C27.4337 17.3324 27.3417 17.2238 27.2712 17.101C27.181 16.9407 27.1094 16.7702 27.0577 16.5931L24.0906 7.5907L22.9938 7.95827L20.333 16.2811C20.2396 16.6553 20.0634 17.0028 19.8177 17.2968C19.6053 17.4858 19.3321 17.5889 19.05 17.5863V18.0882H21.9973V17.5863H21.8588C21.6049 17.6065 21.3527 17.5288 21.1522 17.3688C21.0685 17.279 21.0044 17.1721 20.9642 17.0552C20.924 16.9383 20.9085 16.8141 20.9189 16.6906C20.9175 16.4974 20.9476 16.3052 21.0079 16.122L21.4776 14.5302H24.9974L25.6311 16.4491C25.6687 16.5624 25.6989 16.6651 25.7195 16.7529C25.7378 16.8162 25.7491 16.8814 25.7533 16.9472C25.762 17.0436 25.7445 17.1406 25.7027 17.2275C25.6609 17.3145 25.5964 17.388 25.5163 17.44C25.257 17.5572 24.9734 17.6074 24.6905 17.5863H24.5955V18.0882H28.2986V17.5863C28.1337 17.5847 27.9694 17.5671 27.8078 17.5338ZM21.6896 13.8791L23.2382 9.02347L24.7648 13.8791H21.6896Z" fill="white"/>
<path fill-rule="evenodd" clip-rule="evenodd" d="M22.31 20.0319V19.7611H23.9617V20.0319C23.865 20.0282 23.7687 20.0464 23.6797 20.0852C23.5908 20.124 23.5113 20.1824 23.4472 20.2562C23.3286 20.4626 23.2757 20.7013 23.2955 20.9396V22.9665C23.3401 23.5121 23.1869 24.0555 22.865 24.4938C22.6906 24.6687 22.4812 24.8032 22.2511 24.888C22.0211 24.9728 21.7758 25.0059 21.5319 24.9852C21.2885 25.0037 21.0439 24.9727 20.8124 24.8939C20.5809 24.8151 20.3671 24.69 20.1835 24.5261C20.0212 24.3408 19.8973 24.124 19.8191 23.8888C19.741 23.6536 19.7102 23.4047 19.7286 23.157V20.6215C19.7489 20.4493 19.7102 20.2752 19.6189 20.1288C19.4902 20.0333 19.3309 19.991 19.1729 20.0102H19.0506V19.7611H21.0917V20.0102H20.9644C20.808 19.9898 20.6498 20.0309 20.522 20.1249C20.4328 20.281 20.3961 20.4625 20.4175 20.6418V23.2718C20.389 23.6501 20.5 24.0256 20.7288 24.325C20.853 24.4482 21.0015 24.543 21.1645 24.603C21.3275 24.663 21.5012 24.6869 21.6739 24.673C21.856 24.6875 22.0388 24.6592 22.2085 24.5903C22.3781 24.5213 22.5299 24.4136 22.6522 24.2755C22.8925 23.9251 23.0066 23.5009 22.9753 23.0746V20.9396C22.9951 20.7007 22.9433 20.4614 22.8266 20.2532C22.7616 20.1801 22.6816 20.1224 22.5923 20.0841C22.5031 20.0459 22.4067 20.0281 22.31 20.0319Z" fill="white"/>
<path d="M27.678 20.0381C27.782 20.0293 27.8867 20.0435 27.9849 20.0796C28.083 20.1157 28.1724 20.1729 28.247 20.2474C28.3781 20.4548 28.437 20.7011 28.414 20.9466V23.7393L25.6369 19.7606H24.4202L24.4224 20.0164C24.5701 20.0218 24.716 20.0514 24.8545 20.1042C24.9696 20.1503 25.0728 20.2227 25.1562 20.3158V23.6914C25.1789 23.937 25.1203 24.1834 24.9899 24.3912C24.9157 24.4657 24.8265 24.5229 24.7286 24.559C24.6306 24.5952 24.5262 24.6093 24.4224 24.6005L24.4202 24.878H26.2051V24.6005C26.1011 24.6092 25.9965 24.5951 25.8983 24.559C25.8001 24.5229 25.7107 24.4656 25.6362 24.3912C25.5048 24.1838 25.4459 23.9372 25.4691 23.6914V20.642L28.4803 24.9921H28.7261V20.9465C28.7032 20.7005 28.7631 20.4539 28.8962 20.2473C28.9705 20.1729 29.0596 20.1157 29.1575 20.0796C29.2555 20.0435 29.3599 20.0293 29.4637 20.038V19.7604H27.678V20.0381Z" fill="white"/>
<path d="M29.9218 20.0176H30.0212C30.1816 19.9981 30.3439 20.034 30.4819 20.1196C30.5541 20.1886 30.5887 20.3672 30.5887 20.656V23.9971C30.6125 24.1794 30.5721 24.3644 30.4746 24.5192C30.3361 24.6087 30.1716 24.6471 30.0086 24.628H29.9218V24.8777H31.9548V24.628H31.8341C31.675 24.6479 31.5144 24.6052 31.3851 24.5088C31.2904 24.3465 31.2513 24.1567 31.2739 23.9693V20.656C31.2521 20.4739 31.2885 20.2894 31.3777 20.1301C31.5063 20.0372 31.6645 19.997 31.8208 20.0176H31.9548V19.761H29.9218V20.0176Z" fill="white"/>
<path d="M35.4883 20.0103C35.6372 20.0088 35.7842 20.0451 35.9159 20.1161C35.9585 20.1479 35.9925 20.1904 36.0145 20.2393C36.0365 20.2883 36.0459 20.3422 36.0418 20.3959C36.042 20.4452 36.0373 20.4945 36.0278 20.5429C36.0175 20.6013 36.0025 20.6588 35.9829 20.7147L34.9281 23.8615L33.8041 20.6112C33.7776 20.5309 33.7548 20.4627 33.7401 20.3996C33.7286 20.3565 33.7212 20.3123 33.718 20.2676C33.7183 20.2276 33.7307 20.1886 33.7537 20.156C33.7766 20.1235 33.8089 20.0991 33.8461 20.0861C33.9922 20.0359 34.1453 20.0103 34.2995 20.0103V19.7605H32.4137V20.0103C32.7545 20.0426 33.0082 20.2961 33.1748 20.771C33.18 20.7837 33.1829 20.7965 33.1873 20.8085L34.6447 25.0543H34.8383L36.3745 20.6007C36.42 20.4335 36.5055 20.2804 36.6233 20.1551C36.7361 20.0649 36.8744 20.0142 37.0178 20.0103V19.7605H35.4883V20.0103Z" fill="white"/>
<path d="M40.5871 24.3305C40.2275 24.5199 39.8273 24.6148 39.4226 24.6066C39.2617 24.6223 39.1001 24.5838 38.9626 24.4971C38.9142 24.4437 38.8777 24.3802 38.8557 24.3111C38.8337 24.2419 38.8268 24.1687 38.8353 24.0966V22.3418H39.1893C39.4486 22.3209 39.707 22.3925 39.9202 22.5443C40.0976 22.7228 40.203 22.9626 40.2154 23.2163H40.4575V21.2383H40.2154C40.1962 21.4847 40.0875 21.715 39.9106 21.8841C39.6984 22.0294 39.4443 22.0976 39.1893 22.0776H38.8353V20.5729C38.8241 20.4882 38.8309 20.402 38.8553 20.3202C38.8797 20.2384 38.9211 20.1628 38.9766 20.0988C39.1549 20.0022 39.3573 19.962 39.5581 19.9832C39.8811 19.9735 40.2008 20.0511 40.4848 20.2083C40.8161 20.4303 41.1047 20.7122 41.3364 21.0402L41.5337 20.9644L41.0317 19.7605H37.4758V20.017H37.5729C37.736 19.9972 37.9009 20.0331 38.0418 20.119C38.1338 20.2787 38.1708 20.4651 38.147 20.6486V23.9822C38.1698 24.1664 38.1317 24.353 38.0388 24.5126C37.9099 24.6067 37.7509 24.6478 37.5935 24.6274H37.4758V24.8772H41.2216L41.7103 23.5412L41.5057 23.4692C41.2687 23.8246 40.9543 24.1195 40.5871 24.3305Z" fill="white"/>
<path d="M45.796 24.5097C45.626 24.3706 45.4876 24.1954 45.3905 23.9965L44.4572 22.3493C44.8355 22.3082 45.1958 22.163 45.4994 21.9292C45.6111 21.8287 45.6994 21.7041 45.7578 21.5644C45.8162 21.4248 45.8434 21.2736 45.8373 21.122C45.8478 20.924 45.8083 20.7267 45.7224 20.5488C45.6366 20.371 45.5073 20.2186 45.3471 20.1063C44.9126 19.847 44.4119 19.7266 43.9095 19.7605H41.8868V20.0178H41.9906C42.1521 19.9973 42.3155 20.0347 42.4529 20.1235C42.5426 20.2697 42.5798 20.4431 42.5581 20.6141V23.962C42.5816 24.1523 42.5439 24.3452 42.4507 24.5118C42.3217 24.6066 42.1623 24.6479 42.0046 24.6274H41.8868V24.878H43.9169V24.6274H43.7969C43.641 24.6464 43.4837 24.6066 43.3545 24.5157C43.2644 24.372 43.2262 24.201 43.2463 24.0317V22.3913H43.7675L45.1307 24.878H46.3356V24.6274H46.2833C46.1132 24.6362 45.9442 24.5953 45.796 24.5097ZM43.2463 22.1271V20.6007C43.2344 20.5142 43.2395 20.426 43.2614 20.3416C43.2832 20.2571 43.3214 20.1779 43.3737 20.1086C43.5411 20.0139 43.7333 19.9748 43.9235 19.9967C44.2386 19.9686 44.5523 20.0644 44.8002 20.2646C44.9006 20.3762 44.9773 20.5078 45.0253 20.6511C45.0733 20.7945 45.0916 20.9464 45.0791 21.0973C45.0921 21.2428 45.0718 21.3893 45.0198 21.5255C44.9678 21.6616 44.8856 21.7836 44.7796 21.8819C44.4928 22.0702 44.153 22.1565 43.8131 22.1272L43.2463 22.1271Z" fill="white"/>
<path d="M48.4405 21.9637C48.3816 21.9479 48.2925 21.9247 48.1784 21.8947C47.8415 21.8274 47.5197 21.6969 47.2296 21.5098C47.1239 21.4245 47.0379 21.3164 46.9779 21.1933C46.923 21.0715 46.8961 20.9387 46.8991 20.8047C46.8952 20.6851 46.9149 20.5659 46.957 20.4542C46.9991 20.3425 47.0628 20.2405 47.1442 20.1544C47.2243 20.0694 47.3209 20.0024 47.4279 19.9579C47.5349 19.9133 47.6499 19.8921 47.7655 19.8955C48.0507 19.9049 48.3252 20.0084 48.5479 20.1903C48.8634 20.4445 49.1377 20.7478 49.3606 21.089L49.5607 20.9788L49.0837 19.6848C48.9968 19.729 48.9065 19.7659 48.8136 19.795C48.7436 19.8191 48.6703 19.832 48.5965 19.8333C48.4837 19.8155 48.3729 19.7871 48.2652 19.7485C48.1014 19.6953 47.9308 19.6667 47.7588 19.6638C47.5793 19.6584 47.4007 19.6902 47.2336 19.7574C47.0666 19.8246 46.9147 19.9257 46.7872 20.0546C46.6601 20.1818 46.5601 20.3344 46.4936 20.5029C46.4271 20.6713 46.3955 20.852 46.4008 21.0335C46.3997 21.2238 46.4363 21.4123 46.5083 21.5879C46.5837 21.7636 46.6914 21.923 46.8256 22.0574C47.0909 22.289 47.4099 22.4478 47.7522 22.5188C47.8192 22.5375 47.8693 22.5525 47.901 22.56C48.284 22.6459 48.6452 22.8122 48.9616 23.0484C49.0488 23.1367 49.1168 23.2427 49.1612 23.3595C49.2056 23.4763 49.2253 23.6014 49.2192 23.7265C49.2225 23.8574 49.1994 23.9876 49.1513 24.1091C49.1032 24.2305 49.0311 24.3405 48.9395 24.4324C48.8482 24.5251 48.7395 24.5979 48.6198 24.6465C48.5001 24.6952 48.372 24.7185 48.2432 24.7152C47.9173 24.7044 47.6018 24.5964 47.3356 24.4046C46.9898 24.1648 46.6871 23.8661 46.4406 23.5217L46.2036 23.6117L46.7122 24.9777C46.8183 24.9107 46.9285 24.8503 47.0419 24.797C47.1053 24.7656 47.1741 24.7473 47.2444 24.7429C47.2591 24.7429 47.3834 24.785 47.6212 24.869C47.8461 24.9488 48.0823 24.9904 48.3204 24.992C48.5073 24.9948 48.6926 24.9572 48.8641 24.8817C49.0356 24.8062 49.1895 24.6944 49.3156 24.5539C49.4499 24.4112 49.5551 24.2428 49.6252 24.0584C49.6953 23.8741 49.7289 23.6774 49.7241 23.4797C49.7367 23.1319 49.623 22.7916 49.4047 22.524C49.1452 22.2435 48.8095 22.0484 48.4405 21.9637Z" fill="white"/>
<path d="M49.7678 20.0176H49.8679C50.0279 19.9976 50.1898 20.0336 50.3272 20.1196C50.3993 20.1886 50.4346 20.3664 50.4346 20.656V23.9963C50.4593 24.1788 50.4186 24.3642 50.3198 24.5184C50.1816 24.6088 50.0169 24.6475 49.8539 24.628H49.7678V24.8777H51.8015V24.628H51.6802C51.521 24.6482 51.3602 24.6052 51.2312 24.5079C51.1364 24.346 51.0973 24.1565 51.1201 23.9693V20.656C51.0978 20.4739 51.1342 20.2893 51.2238 20.1301C51.3524 20.0371 51.5106 19.9969 51.6669 20.0176H51.8016V19.7603H49.7679L49.7678 20.0176Z" fill="white"/>
<path d="M52.3892 19.7605L51.9704 20.9923L52.1934 21.0748C52.4288 20.7434 52.7063 20.4452 53.0186 20.1881C53.2072 20.057 53.4306 19.9877 53.6589 19.9894C53.7366 19.9814 53.8146 20.001 53.8798 20.0449C53.9039 20.0733 53.922 20.1065 53.9328 20.1424C53.9436 20.1783 53.9468 20.2162 53.9423 20.2534V24.0168C53.9634 24.1907 53.9254 24.3668 53.8349 24.5157C53.7073 24.6071 53.5509 24.647 53.3962 24.6274H53.2681V24.878H55.3085V24.6274H55.1811C55.0238 24.6476 54.8649 24.606 54.7365 24.5112C54.6451 24.362 54.6067 24.1854 54.6276 24.0109V20.2534C54.6233 20.2162 54.6266 20.1784 54.6374 20.1425C54.6482 20.1066 54.6661 20.0734 54.6902 20.0449C54.7555 20.0015 54.8333 19.9819 54.911 19.9894C55.1391 19.9877 55.3622 20.057 55.5506 20.1881C55.8633 20.4452 56.1413 20.7434 56.3772 21.0748L56.5995 20.9923L56.1807 19.7605H52.3892Z" fill="white"/>
<path d="M59.5084 19.7605L59.5017 20.0103C59.6409 20.0015 59.7801 20.0283 59.9066 20.0883C59.9477 20.1112 59.9817 20.1453 60.0048 20.1867C60.028 20.2282 60.0393 20.2754 60.0376 20.3231C60.0367 20.3705 60.03 20.4177 60.0177 20.4634C60.0015 20.5181 59.9803 20.5711 59.9544 20.6217L59.0763 22.3763L58.0767 20.4582C58.0438 20.401 58.0145 20.3416 57.9891 20.2804C57.9769 20.2507 57.9699 20.2189 57.9685 20.1867C57.9685 20.1282 58.0068 20.0832 58.0819 20.0547C58.1978 20.0194 58.3187 20.0044 58.4396 20.0103H58.5022V19.7605H56.7452L56.7378 20.0103C56.8586 20.0092 56.9782 20.0351 57.0882 20.0862C57.182 20.1534 57.2567 20.2448 57.3046 20.351L58.536 22.7889V24.0236C58.557 24.196 58.5202 24.3705 58.4315 24.5187C58.3057 24.6072 58.1526 24.6458 58.0009 24.6274H57.8714V24.878H59.9066V24.6274H59.7792C59.6215 24.6476 59.462 24.6061 59.3332 24.5112C59.244 24.3686 59.2058 24.199 59.225 24.0311V22.6958L60.3313 20.5698C60.3386 20.5548 60.3489 20.5323 60.3637 20.5023C60.4169 20.3733 60.5017 20.2603 60.6099 20.1742C60.7181 20.088 60.8462 20.0316 60.9819 20.0102V19.7604L59.5084 19.7605Z" fill="white"/>
<path fill-rule="evenodd" clip-rule="evenodd" d="M128.748 43.2851C128.327 43.2021 127.927 43.0347 127.572 42.793C127.088 42.4065 126.679 41.9347 126.365 41.4011C125.964 40.7028 125.645 39.9611 125.414 39.1903L112.216 0L107.338 1.5982L95.5021 37.8316C94.7764 40.0261 94.0105 41.5046 93.2089 42.2515C92.2646 43.0758 91.0492 43.525 89.7943 43.5136V45.6974H102.905V43.5136H102.291C101.16 43.6022 100.037 43.264 99.1444 42.5659C98.7727 42.1747 98.4882 41.7094 98.3098 41.2007C98.1313 40.692 98.0629 40.1513 98.1089 39.6143C98.1014 38.7729 98.2352 37.9361 98.5047 37.1387L100.595 30.2083H116.249L119.069 38.5615C119.236 39.0559 119.369 39.5046 119.461 39.8832C119.543 40.1589 119.593 40.4428 119.612 40.7297C119.651 41.1492 119.574 41.5714 119.388 41.9498C119.202 42.3282 118.915 42.648 118.558 42.8741C117.405 43.386 116.143 43.6057 114.884 43.5136H114.461V45.6974H130.934V43.5136C130.2 43.5055 129.468 43.429 128.748 43.2851ZM101.537 27.3748L108.425 6.23529L115.217 27.3748H101.537Z" fill="white"/>
<path d="M174.706 4.08439L159.645 45.697H157.981L142.698 4.56639V35.3501C142.698 38.117 143.153 40.0898 144.064 41.2879C144.977 42.4744 146.474 43.1348 148.576 43.2816L148.611 45.697H134.084V43.2816C136.226 43.1178 137.736 42.4419 138.628 41.2663C139.521 40.0898 139.967 38.1177 139.965 35.3501V9.46837C139.965 6.59872 139.662 4.87074 139.057 4.24738C138.448 3.64178 137.213 3.33125 135.321 3.33125H134.084V1.09346H146.88L160.165 36.6509L173.207 1.09346H186.564V3.33125H185.444C183.484 3.33125 182.206 3.66263 181.615 4.31226C181.028 4.97348 180.741 6.5825 180.741 9.16557V38.0799C180.741 40.3772 181.041 41.8556 181.646 42.5277C182.261 43.1889 183.522 43.5133 185.444 43.5133H186.564V45.697H168.873V43.5133H169.906C171.866 43.5133 173.156 43.194 173.776 42.5555C174.391 41.9058 174.706 40.4196 174.706 38.0799V4.08439Z" fill="white"/>
<path d="M197.081 82.8399H89.7928V84.2357H197.081V82.8399Z" fill="white"/>
<path d="M207.593 3.33164V1.09385H189.766V3.33164H190.647C192.704 3.33164 194.057 3.6298 194.675 4.21532C195.3 4.82246 195.617 6.37586 195.617 8.8956V38.0092C195.617 40.4085 195.285 41.9263 194.61 42.5651C193.95 43.1947 192.585 43.5137 190.52 43.5137H189.766V45.6974H207.593V43.5137H206.533C204.55 43.5142 203.237 43.1677 202.595 42.474C201.937 41.7842 201.617 40.2146 201.617 37.7651V8.8956C201.617 6.50023 201.917 4.9731 202.53 4.31265C203.133 3.66302 204.425 3.33164 206.413 3.33164H207.593Z" fill="white"/>
<path d="M244.679 1.09385L248.357 11.8263L246.412 12.547C243.284 8.55417 240.868 5.97933 239.166 4.82246C237.519 3.67824 235.557 3.07084 233.549 3.08368C232.868 3.01563 232.184 3.18811 231.617 3.57109C231.405 3.8195 231.247 4.10891 231.153 4.42117C231.058 4.73343 231.029 5.06179 231.068 5.38566V38.139C231.068 40.3653 231.387 41.8251 232.023 42.501C232.658 43.1738 233.951 43.5137 235.923 43.5137H237.038V45.6974H219.147V43.5137H220.264C222.214 43.5137 223.496 43.1885 224.121 42.5327C224.751 41.8784 225.061 40.4316 225.061 38.1954V5.38566C225.1 5.06178 225.071 4.73336 224.976 4.42108C224.882 4.10879 224.724 3.81939 224.512 3.57109C223.943 3.188 223.257 3.01557 222.574 3.08368C220.568 3.07258 218.607 3.67985 216.961 4.82246C215.266 5.98731 212.851 8.56215 209.716 12.547L207.773 11.8263L211.443 1.09385H244.679Z" fill="white"/>
<path d="M253.508 6.23566L264.306 27.4895L264.305 38.2491C264.305 40.4899 263.994 41.9266 263.381 42.5655C262.763 43.195 261.496 43.5133 259.607 43.5133H258.477V45.697H276.312V43.5133H275.195C273.223 43.5133 271.938 43.1734 271.293 42.5014C270.664 41.8255 270.34 40.4312 270.34 38.3194V26.67L280.045 8.14199C280.08 8.07057 280.125 7.97544 280.182 7.85763L280.182 7.85627L280.184 7.85248C280.225 7.76765 280.271 7.6712 280.323 7.5635C281.681 4.96343 283.484 3.52042 285.75 3.26714V1.09423H272.827L272.76 3.26714C273.982 3.19101 275.204 3.42372 276.312 3.94373C276.676 4.1459 276.977 4.44489 277.181 4.80741C277.385 5.16992 277.483 5.58173 277.466 5.99697C277.458 6.40732 277.4 6.81514 277.292 7.21127C277.145 7.68738 276.959 8.151 276.738 8.59773L269.036 23.8915L260.27 7.17419C259.976 6.6767 259.724 6.15615 259.514 5.6177C259.401 5.36366 259.338 5.09005 259.329 4.81204C259.329 4.29063 259.655 3.89514 260.318 3.65182C261.334 3.34537 262.396 3.21526 263.457 3.26714H264.005V1.09423H248.597L248.535 3.26714C249.595 3.25659 250.645 3.48219 251.606 3.9275C252.43 4.51968 253.085 5.31502 253.508 6.23566Z" fill="white"/>
<path fill-rule="evenodd" clip-rule="evenodd" d="M209.941 82.8518H204.808V95.6598H209.924C210.899 95.7138 211.866 95.4621 212.691 94.9398C213.515 94.4176 214.155 93.651 214.521 92.7477C215.04 91.5882 215.299 90.3297 215.28 89.06C215.346 87.5133 214.894 85.9887 213.995 84.7265C213.521 84.1103 212.905 83.6179 212.199 83.2913C211.493 82.9648 210.718 82.814 209.941 82.8518ZM211.019 93.9952C210.558 94.1295 210.079 94.1913 209.6 94.1783L206.566 94.1779V84.3434H209.583C210.152 84.2946 210.723 84.3896 211.245 84.6197C211.768 84.8498 212.223 85.2075 212.57 85.6597C213.25 86.7686 213.574 88.0588 213.497 89.3566C213.494 89.807 213.451 90.2562 213.369 90.6991C213.26 91.4027 213.013 92.078 212.643 92.6867C212.267 93.295 211.694 93.7568 211.019 93.9952Z" fill="white"/>
<path d="M224.461 82.8521V90.769C224.432 91.5747 224.614 92.3741 224.99 93.0879C225.252 93.5473 225.639 93.9227 226.107 94.1698C226.575 94.4169 227.105 94.5256 227.633 94.4829C229.119 94.4829 230.13 93.98 230.665 92.9743C230.982 92.2839 231.13 91.5278 231.096 90.769V82.8521H232.853V90.0452C232.916 91.2898 232.697 92.5325 232.213 93.6811C231.429 95.2275 229.949 96.0005 227.773 96C225.599 96 224.122 95.227 223.344 93.6811C222.86 92.5325 222.641 91.2898 222.704 90.0452V82.8521H224.461Z" fill="white"/>
<path fill-rule="evenodd" clip-rule="evenodd" d="M245.943 82.8518H240.391L240.391 95.6598H245.852C246.547 95.7203 247.246 95.616 247.893 95.3554C248.539 95.0948 249.115 94.6854 249.573 94.1605C250.083 93.5249 250.359 92.7339 250.356 91.9196C250.38 91.4958 250.315 91.0716 250.166 90.6739C250.017 90.2762 249.787 89.9137 249.491 89.6092C249.058 89.2333 248.556 88.9459 248.012 88.7634C248.401 88.5815 248.751 88.3272 249.044 88.0141C249.518 87.4616 249.765 86.7512 249.735 86.025C249.747 85.371 249.549 84.7303 249.172 84.1951C248.787 83.7223 248.291 83.3521 247.727 83.1177C247.164 82.8833 246.551 82.7919 245.943 82.8518ZM247.024 87.9616C246.477 88.1906 245.885 88.2948 245.292 88.2667H242.095V84.2994H245.231C245.818 84.2721 246.405 84.3549 246.962 84.5435C247.294 84.6775 247.573 84.9144 247.759 85.219C247.945 85.5237 248.028 85.8799 247.995 86.2351C248.026 86.587 247.95 86.94 247.777 87.2481C247.604 87.5561 247.341 87.8048 247.024 87.9616ZM247.146 93.9978C246.745 94.1588 246.311 94.2207 245.881 94.1783H242.094V89.6702H245.58C246.183 89.6488 246.785 89.7405 247.354 89.9406C247.744 90.0756 248.079 90.3348 248.307 90.6783C248.535 91.0218 248.644 91.4305 248.616 91.8416C248.631 92.3469 248.479 92.843 248.183 93.2536C247.903 93.5815 247.547 93.8368 247.146 93.9978Z" fill="white"/>
<path fill-rule="evenodd" clip-rule="evenodd" d="M261.403 82.8522H263.367L268.028 95.6602H266.122L264.782 91.8234H259.744L258.351 95.6602H256.568L261.403 82.8522ZM264.288 90.4114L262.311 84.7532L260.256 90.4114H264.288Z" fill="white"/>
<path d="M274.556 82.8522H276.314V95.6602H274.556V82.8522Z" fill="white"/>
<path d="M104.564 53.0931H107.551V66.1012C107.617 67.9295 107.356 69.755 106.781 71.4921C106.242 72.8529 105.264 73.9959 104.001 74.7402C102.396 75.6417 100.569 76.0752 98.7282 75.9916C96.9347 76.0626 95.1517 75.6881 93.5393 74.9017C92.2364 74.2209 91.2164 73.1031 90.6591 71.7455C90.0132 69.9362 89.7206 68.0202 89.7971 66.1012V53.0931H92.7842V66.0857C92.7145 67.5475 92.8995 69.0103 93.331 70.4091C93.6832 71.3224 94.3486 72.0817 95.209 72.5519C96.2106 73.0806 97.333 73.3399 98.4656 73.3043C100.663 73.3043 102.228 72.8076 103.162 71.8142C104.096 70.8216 104.564 68.9121 104.564 66.0857V53.0931Z" fill="white"/>
<path d="M112.494 53.0935V75.6081H115.358V57.9152L127.214 75.6081H130.278V53.0935H127.414V70.7703L115.558 53.0935H112.494Z" fill="white"/>
<path d="M138.793 53.0928H135.806V75.6074H138.793V53.0928Z" fill="white"/>
<path d="M141.766 53.0936L150.511 75.6082H153.575L162.414 53.0936H159.365L153.268 69.4495C152.806 70.6779 152.4 71.9067 152.05 73.1356C151.732 71.989 151.337 70.7603 150.865 69.4495L144.999 53.0936H141.766Z" fill="white"/>
<path d="M165.155 75.6081V53.0935H181.477V55.75H168.142V62.6457H180.63V65.2874H168.142V72.9509H182V75.6081H165.155Z" fill="white"/>
<path fill-rule="evenodd" clip-rule="evenodd" d="M186.173 53.0929V75.6082H189.16V65.6096H192.625C193.182 65.5942 193.738 65.6302 194.288 65.717C194.773 65.8397 195.233 66.0423 195.651 66.3164C196.233 66.7348 196.745 67.2427 197.167 67.8212C197.732 68.538 198.451 69.5723 199.323 70.9241L202.31 75.6082H206.067L202.141 69.4796C201.444 68.3815 200.611 67.3754 199.662 66.4848C199.116 66.031 198.509 65.6539 197.861 65.364C199.654 65.2355 201.349 64.4984 202.664 63.2753C203.699 62.1874 204.258 60.7348 204.22 59.2362C204.231 58.0393 203.906 56.8632 203.28 55.842C202.71 54.8656 201.825 54.1104 200.77 53.6992C199.288 53.2318 197.735 53.0266 196.181 53.0929H186.173ZM195.581 63.0297H189.16V55.5801H196.305C197.614 55.4699 198.918 55.8357 199.977 56.6098C200.354 56.9344 200.654 57.3384 200.855 57.7926C201.056 58.2467 201.153 58.7398 201.14 59.2362C201.143 59.9535 200.934 60.6557 200.539 61.2554C200.122 61.8886 199.504 62.3644 198.784 62.6071C197.748 62.9267 196.665 63.0695 195.581 63.0297Z" fill="white"/>
<path d="M207.884 68.3744L210.702 68.1287C210.787 69.1136 211.106 70.064 211.634 70.901C212.207 71.6898 212.995 72.2974 213.905 72.6514C215.001 73.1107 216.181 73.3383 217.37 73.3196C218.399 73.3388 219.422 73.167 220.388 72.8129C221.159 72.5487 221.836 72.0657 222.335 71.4232C222.751 70.8662 222.976 70.1898 222.975 69.4952C222.987 68.8264 222.769 68.1737 222.358 67.6452C221.814 67.0272 221.112 66.568 220.326 66.3166C219.007 65.8804 217.665 65.5138 216.307 65.2181C214.806 64.9132 213.345 64.4419 211.95 63.813C210.974 63.3399 210.142 62.6163 209.539 61.7166C209.01 60.878 208.734 59.9045 208.746 58.9134C208.746 57.7786 209.084 56.6692 209.717 55.7262C210.407 54.7038 211.396 53.9184 212.55 53.4769C213.866 52.9508 215.274 52.6899 216.692 52.7091C218.207 52.6795 219.713 52.9538 221.119 53.5155C222.32 53.9902 223.348 54.8174 224.068 55.8877C224.759 56.9452 225.143 58.1734 225.177 59.4356L222.312 59.6511C222.281 59.0366 222.126 58.4345 221.858 57.8805C221.589 57.3264 221.212 56.8316 220.749 56.4253C219.603 55.6209 218.213 55.2359 216.815 55.3354C215.008 55.3354 213.691 55.6655 212.866 56.3257C212.485 56.5985 212.175 56.957 211.96 57.372C211.744 57.787 211.63 58.2468 211.627 58.7141C211.617 59.0908 211.69 59.4651 211.842 59.8103C211.993 60.1554 212.22 60.4629 212.504 60.7109C213.079 61.2323 214.58 61.7671 217.008 62.3152C218.712 62.648 220.384 63.1287 222.004 63.752C223.168 64.2354 224.175 65.0299 224.915 66.0477C225.547 66.9949 225.875 68.1118 225.854 69.2495C225.852 70.455 225.493 71.6329 224.823 72.636C224.095 73.7292 223.065 74.5882 221.858 75.1086C220.49 75.7138 219.005 76.0151 217.509 75.9915C215.754 76.0437 214.007 75.741 212.372 75.1016C211.046 74.5514 209.914 73.6179 209.124 72.4212C208.335 71.2165 207.905 69.8131 207.884 68.3744Z" fill="white"/>
<path d="M230.443 53.0928H233.43V75.6074H230.443V53.0928Z" fill="white"/>
<path d="M244.439 75.6081V55.75H237.002V53.0935H254.895V55.75H247.426V75.6081H244.439Z" fill="white"/>
<path d="M264.319 66.0708V75.6082H267.306V66.0709L276.313 53.0937H272.834L268.46 59.7121C267.496 61.1868 266.674 62.5129 265.997 63.6902C265.289 62.4208 264.524 61.1511 263.702 59.8812L259.252 53.0936H255.618L264.319 66.0708Z" fill="white"/>
</svg>
