<svg width="96" height="32" viewBox="0 0 96 32" fill="none" xmlns="http://www.w3.org/2000/svg">
<path d="M15.9997 0C7.17727 0 0.000244141 7.17741 0.000244141 15.9994C0.000244141 24.8218 7.17727 32 15.9997 32C24.8221 32 32.0002 24.8218 32.0002 15.9994C32.0002 7.17741 24.8221 0 15.9997 0ZM15.9997 29.8016C8.38947 29.8016 2.19866 23.61 2.19866 15.9994C2.19866 8.38922 8.38947 2.19842 15.9997 2.19842C23.6103 2.19842 29.8018 8.38922 29.8018 15.9994C29.8018 23.61 23.6103 29.8016 15.9997 29.8016Z" fill="#FFC600"/>
<path fill-rule="evenodd" clip-rule="evenodd" d="M15.643 8.77726C15.643 8.32399 16.0213 7.95654 16.488 7.95654H18.7947C19.2336 7.95654 19.5995 8.28302 19.6366 8.70786C19.7473 9.975 20.3028 10.6662 20.8936 11.0576C21.5214 11.4735 22.2557 11.5916 22.7113 11.5718L23.5554 11.5352L23.6307 13.175L22.7866 13.2116C22.0339 13.2443 20.9229 13.0638 19.9415 12.4137C19.0768 11.8408 18.357 10.9309 18.0658 9.59797H17.3329V17.5777C17.3329 19.0495 16.7318 20.2218 15.7893 20.8673C14.8426 21.5157 13.5995 21.579 12.6047 20.8771C11.3944 20.0232 11.1797 18.6614 11.6686 17.5957C12.0418 16.7821 12.8229 16.1385 13.8307 15.9811V14.9995C13.221 15.0827 12.5385 15.2666 11.9508 15.6223C11.1265 16.1212 10.4129 16.9978 10.4129 18.6777C10.4129 19.7789 10.7168 20.5276 11.1323 21.0459C11.5535 21.5715 12.1401 21.9229 12.805 22.1379C13.4731 22.3538 14.1919 22.4218 14.8198 22.3959C15.4715 22.3689 15.9265 22.2457 16.0967 22.1593C17.0729 21.6639 17.5656 21.2056 17.8501 20.6628C18.1494 20.0916 18.2793 19.3145 18.2793 18.0491V13.6489C18.2793 13.3655 18.4298 13.1022 18.6774 12.9524C18.925 12.8025 19.2347 12.7873 19.4966 12.9122C19.9766 13.1411 21.367 13.6585 22.8179 13.7739L23.66 13.8408L23.5222 15.4768L22.68 15.4098C21.6797 15.3303 20.7187 15.0948 19.9691 14.854V18.0491C19.9691 19.3747 19.8435 20.4771 19.3561 21.4074C18.8537 22.366 18.0284 23.031 16.8792 23.6141C16.3964 23.8591 15.66 24.004 14.8917 24.0358C14.0997 24.0686 13.1701 23.9858 12.2714 23.6953C11.3695 23.4037 10.4711 22.893 9.79884 22.0543C9.12085 21.2084 8.72302 20.091 8.72302 18.6777C8.72302 16.4289 9.73945 15.0268 11.0571 14.2292C12.3151 13.4678 13.7707 13.2997 14.6756 13.2997C15.1422 13.2997 15.5205 13.6671 15.5205 14.1204V16.7919C15.5205 17.031 15.4132 17.2581 15.2266 17.4141C15.0401 17.57 14.7928 17.6391 14.5494 17.6034C13.8768 17.5047 13.4078 17.8374 13.2122 18.2637C13.0195 18.6838 13.0886 19.1898 13.5978 19.5491C13.957 19.8025 14.4073 19.8054 14.8155 19.5258C15.2278 19.2434 15.643 18.6202 15.643 17.5777V8.77726Z" fill="#FFC600"/>
<path d="M50.9762 10.632V12.2H47.5522V21H45.7282V12.2H42.2562V10.632H50.9762ZM52.4666 21V10.632H54.2906V21H52.4666ZM60.6355 15.56L65.2275 20.888V21H63.0035L58.5875 15.768V21H56.7635V10.632H58.5875V15.512L62.9555 10.632H65.0195V10.744L60.6355 15.56ZM74.3512 10.632V12.2H70.9272V21H69.1032V12.2H65.6312V10.632H74.3512ZM79.8201 21.208C78.7535 21.208 77.8468 20.984 77.1001 20.536C76.3535 20.0773 75.7881 19.4427 75.4041 18.632C75.0308 17.8107 74.8441 16.8613 74.8441 15.784C74.8441 14.5893 75.0735 13.592 75.5321 12.792C75.9908 11.9813 76.6041 11.384 77.3721 11C78.1401 10.616 78.9935 10.424 79.9321 10.424C80.9988 10.424 81.9055 10.6533 82.6521 11.112C83.3988 11.56 83.9588 12.1947 84.3321 13.016C84.7055 13.8267 84.8921 14.7707 84.8921 15.848C84.8921 17.0427 84.6628 18.0453 84.2041 18.856C83.7455 19.656 83.1321 20.248 82.3641 20.632C81.6068 21.016 80.7588 21.208 79.8201 21.208ZM79.8201 19.688C80.5135 19.688 81.1001 19.528 81.5801 19.208C82.0601 18.888 82.4175 18.4453 82.6521 17.88C82.8868 17.304 83.0041 16.632 83.0041 15.864C83.0041 15.0747 82.8921 14.3867 82.6681 13.8C82.4441 13.2133 82.1028 12.76 81.6441 12.44C81.1855 12.1093 80.6148 11.944 79.9321 11.944C79.2281 11.944 78.6361 12.104 78.1561 12.424C77.6761 12.744 77.3188 13.192 77.0841 13.768C76.8495 14.3333 76.7321 15 76.7321 15.768C76.7321 16.9733 76.9935 17.928 77.5161 18.632C78.0388 19.336 78.8068 19.688 79.8201 19.688ZM90.6667 15.56L95.2587 20.888V21H93.0347L88.6187 15.768V21H86.7947V10.632H88.6187V15.512L92.9867 10.632H95.0507V10.744L90.6667 15.56Z" fill="#FFC600"/>
</svg>
