<svg width="108" height="32" viewBox="0 0 108 32" fill="none" xmlns="http://www.w3.org/2000/svg">
<path d="M23.222 10.8771C22.6824 11.1961 22.086 11.4286 21.4506 11.5542C20.9416 11.0127 20.2158 10.6733 19.4153 10.6733C17.8749 10.6733 16.6267 11.9216 16.6267 13.462C16.6267 13.6803 16.6508 13.8936 16.6983 14.0966C14.3811 13.9813 12.3263 12.871 10.9502 11.1835C10.7096 11.5956 10.5725 12.0751 10.5725 12.5861C10.5725 13.5528 11.0647 14.4069 11.8138 14.9071C11.3562 14.8929 10.9268 14.7669 10.5507 14.5578C10.5499 14.5693 10.5499 14.5819 10.5499 14.5938C10.5499 15.9442 11.5105 17.0722 12.7878 17.3277C12.5527 17.392 12.3072 17.4265 12.0525 17.4265C11.8732 17.4265 11.6986 17.4085 11.5285 17.3763C11.8836 18.4836 12.9123 19.2902 14.1329 19.3124C13.1789 20.0608 11.9766 20.5066 10.669 20.5066C10.4442 20.5066 10.2225 20.4939 10.0042 20.4671C11.2382 21.258 12.7047 21.7203 14.2796 21.7203C19.4096 21.7203 22.2143 17.4705 22.2143 13.7856C22.2143 13.665 22.2113 13.5443 22.2063 13.4245C22.7509 13.0315 23.2235 12.5405 23.5974 11.9813C23.0971 12.2027 22.5598 12.352 21.9956 12.4195C22.5713 12.0751 23.0137 11.5274 23.222 10.8771Z" fill="#FFC600"/>
<path d="M16.5003 0C7.67776 0 0.499878 7.17712 0.499878 15.9996C0.499878 24.8221 7.67776 32 16.5003 32C25.3228 32 32.5006 24.8221 32.5006 15.9996C32.5006 7.17712 25.3228 0 16.5003 0ZM16.5003 29.8016C8.88997 29.8016 2.69832 23.6099 2.69832 15.9996C2.69832 8.38932 8.88997 2.19806 16.5003 2.19806C24.1106 2.19806 30.3022 8.38932 30.3022 15.9996C30.3022 23.6099 24.1106 29.8016 16.5003 29.8016Z" fill="#FFC600"/>
<path d="M51.4766 10.632V12.2H48.0526V21H46.2286V12.2H42.7566V10.632H51.4766ZM66.151 10.632V10.744L63.367 21H61.143L59.591 14.936C59.399 14.136 59.2337 13.2827 59.095 12.376C58.9563 13.2827 58.791 14.136 58.599 14.936L57.111 21H54.871L52.039 10.744V10.632H53.895L55.479 16.76C55.5643 17.0587 55.655 17.448 55.751 17.928C55.8577 18.3973 55.9483 18.856 56.023 19.304C56.183 18.216 56.343 17.368 56.503 16.76L58.103 10.632H60.199L61.799 16.712C61.9803 17.3947 62.1563 18.264 62.327 19.32C62.4763 18.456 62.6523 17.5867 62.855 16.712L64.343 10.632H66.151ZM67.6857 21V10.632H69.5097V21H67.6857ZM79.7266 10.632V12.2H76.3026V21H74.4786V12.2H71.0066V10.632H79.7266ZM88.961 10.632V12.2H85.537V21H83.713V12.2H80.241V10.632H88.961ZM92.2754 19.48H97.2194V21H90.4514V10.632H97.1394V12.136H92.2754V14.984H96.4994L96.2914 16.456H92.2754V19.48ZM107.137 20.888V21H105.073L102.273 17.08H101.025V21H99.2014V10.632H102.625C103.479 10.632 104.193 10.7653 104.769 11.032C105.356 11.2987 105.793 11.6667 106.081 12.136C106.38 12.6053 106.529 13.1493 106.529 13.768C106.529 14.504 106.327 15.1493 105.921 15.704C105.527 16.248 104.945 16.632 104.177 16.856L107.137 20.888ZM101.025 15.64H102.401C103.127 15.64 103.681 15.4907 104.065 15.192C104.449 14.8827 104.641 14.4293 104.641 13.832C104.641 13.2773 104.465 12.856 104.113 12.568C103.772 12.28 103.271 12.136 102.609 12.136H101.025V15.64Z" fill="#FFC600"/>
</svg>
