<svg width="112" height="32" viewBox="0 0 112 32" fill="none" xmlns="http://www.w3.org/2000/svg">
<path d="M21.1234 11.3447C17.8104 11.085 14.1895 11.085 10.878 11.3447C9.84199 11.4711 9.06105 12.1681 8.86112 13.1938C8.62634 14.9855 8.62634 17.0143 8.86035 18.8056C9.06066 19.8313 9.84199 20.528 10.878 20.6547C14.1895 20.9148 17.8104 20.9144 21.1234 20.6547C22.1579 20.5272 22.9381 19.8324 23.1395 18.8056C23.3728 17.0131 23.3728 14.9859 23.1395 13.1938C22.9381 12.1674 22.1579 11.4726 21.1234 11.3447ZM15.0103 17.9725V14.0272L18.5216 15.9997L15.0103 17.9725Z" fill="#FFC600"/>
<path d="M15.9999 0C7.17738 0 -0.00012207 7.1775 -0.00012207 15.9996C-0.00012207 24.8221 7.17738 32 15.9999 32C24.8224 32 31.9999 24.8221 31.9999 15.9996C31.9999 7.1775 24.8224 0 15.9999 0ZM15.9999 29.8016C8.3892 29.8016 2.19832 23.6099 2.19832 15.9996C2.19832 8.38932 8.3892 2.19844 15.9999 2.19844C23.6098 2.19844 29.8014 8.38932 29.8014 15.9996C29.8014 23.6099 23.6098 29.8016 15.9999 29.8016Z" fill="#FFC600"/>
<path d="M51.5999 10.632V10.744L47.7919 16.84V21H45.9679V16.824L42.2399 10.744V10.632H44.2719L46.9119 15.176L49.6639 10.632H51.5999ZM56.7729 21.208C55.7062 21.208 54.7995 20.984 54.0529 20.536C53.3062 20.0773 52.7409 19.4427 52.3569 18.632C51.9835 17.8107 51.7969 16.8613 51.7969 15.784C51.7969 14.5893 52.0262 13.592 52.4849 12.792C52.9435 11.9813 53.5569 11.384 54.3249 11C55.0929 10.616 55.9462 10.424 56.8849 10.424C57.9515 10.424 58.8582 10.6533 59.6049 11.112C60.3515 11.56 60.9115 12.1947 61.2849 13.016C61.6582 13.8267 61.8449 14.7707 61.8449 15.848C61.8449 17.0427 61.6155 18.0453 61.1569 18.856C60.6982 19.656 60.0849 20.248 59.3169 20.632C58.5595 21.016 57.7115 21.208 56.7729 21.208ZM56.7729 19.688C57.4662 19.688 58.0529 19.528 58.5329 19.208C59.0129 18.888 59.3702 18.4453 59.6049 17.88C59.8395 17.304 59.9569 16.632 59.9569 15.864C59.9569 15.0747 59.8449 14.3867 59.6209 13.8C59.3969 13.2133 59.0555 12.76 58.5969 12.44C58.1382 12.1093 57.5675 11.944 56.8849 11.944C56.1809 11.944 55.5889 12.104 55.1089 12.424C54.6289 12.744 54.2715 13.192 54.0369 13.768C53.8022 14.3333 53.6849 15 53.6849 15.768C53.6849 16.9733 53.9462 17.928 54.4689 18.632C54.9915 19.336 55.7595 19.688 56.7729 19.688ZM67.8915 21.208C66.8995 21.208 66.0728 21.016 65.4115 20.632C64.7608 20.248 64.2808 19.7307 63.9715 19.08C63.6622 18.4187 63.5075 17.6667 63.5075 16.824V10.632H65.3315V16.52C65.3315 17.512 65.5395 18.2853 65.9555 18.84C66.3715 19.384 67.0542 19.656 68.0035 19.656C69.7208 19.656 70.5795 18.6533 70.5795 16.648V10.632H72.4035V16.776C72.4035 17.8107 72.2062 18.6587 71.8115 19.32C71.4168 19.9707 70.8835 20.4507 70.2115 20.76C69.5395 21.0587 68.7662 21.208 67.8915 21.208ZM82.3665 10.632V12.2H78.9425V21H77.1185V12.2H73.6465V10.632H82.3665ZM88.0009 21.208C87.0089 21.208 86.1822 21.016 85.5209 20.632C84.8702 20.248 84.3902 19.7307 84.0809 19.08C83.7715 18.4187 83.6169 17.6667 83.6169 16.824V10.632H85.4409V16.52C85.4409 17.512 85.6489 18.2853 86.0649 18.84C86.4809 19.384 87.1635 19.656 88.1129 19.656C89.8302 19.656 90.6889 18.6533 90.6889 16.648V10.632H92.5129V16.776C92.5129 17.8107 92.3155 18.6587 91.9209 19.32C91.5262 19.9707 90.9929 20.4507 90.3209 20.76C89.6489 21.0587 88.8755 21.208 88.0009 21.208ZM100.364 15.544C100.844 15.6613 101.239 15.8533 101.548 16.12C101.868 16.376 102.097 16.6693 102.236 17C102.385 17.3307 102.46 17.6773 102.46 18.04C102.46 18.6373 102.311 19.16 102.012 19.608C101.724 20.0453 101.292 20.3867 100.716 20.632C100.14 20.8773 99.4412 21 98.6199 21H94.7319V10.632H98.4279C99.1959 10.632 99.8519 10.7493 100.396 10.984C100.94 11.208 101.351 11.5227 101.628 11.928C101.916 12.3333 102.06 12.8027 102.06 13.336C102.06 13.8267 101.921 14.2693 101.644 14.664C101.367 15.048 100.94 15.3413 100.364 15.544ZM96.5559 12.104V14.984H98.2039C98.8012 14.984 99.2812 14.8667 99.6439 14.632C100.017 14.3973 100.204 14.0133 100.204 13.48C100.204 13.064 100.049 12.7333 99.7399 12.488C99.4305 12.232 98.9932 12.104 98.4279 12.104H96.5559ZM98.5559 19.512C99.2705 19.512 99.7825 19.368 100.092 19.08C100.412 18.792 100.572 18.424 100.572 17.976C100.572 17.496 100.407 17.1173 100.076 16.84C99.7452 16.552 99.2492 16.408 98.5879 16.408H96.5559V19.512H98.5559ZM106.181 19.48H111.125V21H104.357V10.632H111.045V12.136H106.181V14.984H110.405L110.197 16.456H106.181V19.48Z" fill="#FFC600"/>
</svg>
